<mxfile host="Electron" agent="Mozilla/5.0 (Windows NT 10.0; Win64; x64) AppleWebKit/537.36 (KHTML, like Gecko) draw.io/28.0.6 Chrome/138.0.7204.100 Electron/37.2.3 Safari/537.36" version="28.0.6">
  <diagram name="Página-1" id="pTYP3p9Cg9861KhYafH4">
    <mxGraphModel dx="983" dy="580" grid="0" gridSize="10" guides="1" tooltips="1" connect="1" arrows="1" fold="1" page="1" pageScale="1" pageWidth="827" pageHeight="1169" math="0" shadow="0">
      <root>
        <mxCell id="0" />
        <mxCell id="1" parent="0" />
        <mxCell id="5bvm06Lg-U0lzju4u_Vg-1" value="Revisión y elaboración de estadístico de finalización del ciclo anterior (Histórico) &#xa;Caso Pregrado - Docentes" style="shape=table;startSize=34;container=1;collapsible=0;childLayout=tableLayout;fixedRows=1;rowLines=0;fontStyle=0;strokeColor=default;fontSize=14;fontFamily=Times New Roman;" vertex="1" parent="1">
          <mxGeometry x="22" y="27" width="469" height="99.34482758620695" as="geometry" />
        </mxCell>
        <mxCell id="5bvm06Lg-U0lzju4u_Vg-2" value="" style="shape=tableRow;horizontal=0;startSize=0;swimlaneHead=0;swimlaneBody=0;top=0;left=0;bottom=0;right=0;collapsible=0;dropTarget=0;fillColor=none;points=[[0,0.5],[1,0.5]];portConstraint=eastwest;strokeColor=inherit;fontSize=16;fontFamily=Times New Roman;" vertex="1" parent="5bvm06Lg-U0lzju4u_Vg-1">
          <mxGeometry y="34" width="469" height="20" as="geometry" />
        </mxCell>
        <mxCell id="5bvm06Lg-U0lzju4u_Vg-3" value="&lt;font style=&quot;font-size: 14px;&quot;&gt;Detalle&lt;/font&gt;&lt;div&gt;&lt;br&gt;&lt;/div&gt;" style="shape=partialRectangle;html=1;whiteSpace=wrap;connectable=0;fillColor=none;top=0;left=0;bottom=0;right=0;overflow=hidden;pointerEvents=1;strokeColor=inherit;fontSize=16;fontFamily=Times New Roman;" vertex="1" parent="5bvm06Lg-U0lzju4u_Vg-2">
          <mxGeometry width="74" height="20" as="geometry">
            <mxRectangle width="74" height="20" as="alternateBounds" />
          </mxGeometry>
        </mxCell>
        <mxCell id="5bvm06Lg-U0lzju4u_Vg-4" value="&lt;font style=&quot;font-size: 14px;&quot;&gt;Ciclo 01-2025&lt;/font&gt;" style="shape=partialRectangle;html=1;whiteSpace=wrap;connectable=0;fillColor=none;top=0;left=0;bottom=0;right=0;align=left;spacingLeft=6;overflow=hidden;strokeColor=inherit;fontSize=16;fontFamily=Times New Roman;" vertex="1" parent="5bvm06Lg-U0lzju4u_Vg-2">
          <mxGeometry x="74" width="395" height="20" as="geometry">
            <mxRectangle width="395" height="20" as="alternateBounds" />
          </mxGeometry>
        </mxCell>
        <mxCell id="5bvm06Lg-U0lzju4u_Vg-5" value="" style="shape=tableRow;horizontal=0;startSize=0;swimlaneHead=0;swimlaneBody=0;top=0;left=0;bottom=0;right=0;collapsible=0;dropTarget=0;fillColor=none;points=[[0,0.5],[1,0.5]];portConstraint=eastwest;strokeColor=inherit;fontSize=16;fontFamily=Times New Roman;" vertex="1" parent="5bvm06Lg-U0lzju4u_Vg-1">
          <mxGeometry y="54" width="469" height="25" as="geometry" />
        </mxCell>
        <mxCell id="5bvm06Lg-U0lzju4u_Vg-6" value="&lt;font style=&quot;font-size: 14px;&quot;&gt;Encargado&lt;/font&gt;" style="shape=partialRectangle;html=1;whiteSpace=wrap;connectable=0;fillColor=none;top=0;left=0;bottom=0;right=0;overflow=hidden;strokeColor=inherit;fontSize=16;fontFamily=Times New Roman;" vertex="1" parent="5bvm06Lg-U0lzju4u_Vg-5">
          <mxGeometry width="74" height="25" as="geometry">
            <mxRectangle width="74" height="25" as="alternateBounds" />
          </mxGeometry>
        </mxCell>
        <mxCell id="5bvm06Lg-U0lzju4u_Vg-7" value="&lt;font style=&quot;font-size: 14px;&quot;&gt;Juan Santos&lt;/font&gt;" style="shape=partialRectangle;html=1;whiteSpace=wrap;connectable=0;fillColor=none;top=0;left=0;bottom=0;right=0;align=left;spacingLeft=6;overflow=hidden;strokeColor=inherit;fontSize=16;fontFamily=Times New Roman;" vertex="1" parent="5bvm06Lg-U0lzju4u_Vg-5">
          <mxGeometry x="74" width="395" height="25" as="geometry">
            <mxRectangle width="395" height="25" as="alternateBounds" />
          </mxGeometry>
        </mxCell>
        <mxCell id="5bvm06Lg-U0lzju4u_Vg-8" value="" style="shape=tableRow;horizontal=0;startSize=0;swimlaneHead=0;swimlaneBody=0;top=0;left=0;bottom=0;right=0;collapsible=0;dropTarget=0;fillColor=none;points=[[0,0.5],[1,0.5]];portConstraint=eastwest;strokeColor=inherit;fontSize=16;fontFamily=Times New Roman;" vertex="1" parent="5bvm06Lg-U0lzju4u_Vg-1">
          <mxGeometry y="79" width="469" height="20" as="geometry" />
        </mxCell>
        <mxCell id="5bvm06Lg-U0lzju4u_Vg-9" value="" style="shape=partialRectangle;html=1;whiteSpace=wrap;connectable=0;fillColor=none;top=0;left=0;bottom=0;right=0;overflow=hidden;strokeColor=inherit;fontSize=16;fontFamily=Times New Roman;" vertex="1" parent="5bvm06Lg-U0lzju4u_Vg-8">
          <mxGeometry width="74" height="20" as="geometry">
            <mxRectangle width="74" height="20" as="alternateBounds" />
          </mxGeometry>
        </mxCell>
        <mxCell id="5bvm06Lg-U0lzju4u_Vg-10" value="" style="shape=partialRectangle;html=1;whiteSpace=wrap;connectable=0;fillColor=none;top=0;left=0;bottom=0;right=0;align=left;spacingLeft=6;overflow=hidden;strokeColor=inherit;fontSize=16;fontFamily=Times New Roman;" vertex="1" parent="5bvm06Lg-U0lzju4u_Vg-8">
          <mxGeometry x="74" width="395" height="20" as="geometry">
            <mxRectangle width="395" height="20" as="alternateBounds" />
          </mxGeometry>
        </mxCell>
        <mxCell id="5bvm06Lg-U0lzju4u_Vg-11" value="" style="edgeStyle=orthogonalEdgeStyle;rounded=0;orthogonalLoop=1;jettySize=auto;html=1;" edge="1" parent="1" source="5bvm06Lg-U0lzju4u_Vg-12" target="5bvm06Lg-U0lzju4u_Vg-14">
          <mxGeometry relative="1" as="geometry" />
        </mxCell>
        <mxCell id="5bvm06Lg-U0lzju4u_Vg-12" value="&lt;font style=&quot;font-size: 14px;&quot; face=&quot;Times New Roman&quot;&gt;Revisión y elaboración de estadístico de finalización del ciclo anterior&lt;/font&gt;" style="rounded=0;whiteSpace=wrap;html=1;fillColor=#dae8fc;strokeColor=#6c8ebf;" vertex="1" parent="1">
          <mxGeometry x="314" y="255" width="193" height="55" as="geometry" />
        </mxCell>
        <mxCell id="5bvm06Lg-U0lzju4u_Vg-13" value="" style="edgeStyle=orthogonalEdgeStyle;rounded=0;orthogonalLoop=1;jettySize=auto;html=1;" edge="1" parent="1" source="5bvm06Lg-U0lzju4u_Vg-14" target="5bvm06Lg-U0lzju4u_Vg-16">
          <mxGeometry relative="1" as="geometry" />
        </mxCell>
        <mxCell id="5bvm06Lg-U0lzju4u_Vg-14" value="&lt;font style=&quot;font-size: 13px; background-color: light-dark(#ffffff, var(--ge-dark-color, #121212));&quot; face=&quot;Times New Roman&quot;&gt;Ingresar al portal empresarial desde la URL:&amp;nbsp;&lt;span style=&quot;text-align: start;&quot;&gt;https://portalempresarial.utec.edu.sv/uonline/&lt;/span&gt;&lt;/font&gt;" style="whiteSpace=wrap;html=1;rounded=0;" vertex="1" parent="1">
          <mxGeometry x="269.13" y="344" width="282.75" height="38" as="geometry" />
        </mxCell>
        <mxCell id="5bvm06Lg-U0lzju4u_Vg-15" value="" style="edgeStyle=orthogonalEdgeStyle;rounded=0;orthogonalLoop=1;jettySize=auto;html=1;" edge="1" parent="1" source="5bvm06Lg-U0lzju4u_Vg-16" target="5bvm06Lg-U0lzju4u_Vg-19">
          <mxGeometry relative="1" as="geometry" />
        </mxCell>
        <mxCell id="5bvm06Lg-U0lzju4u_Vg-16" value="&lt;font style=&quot;font-size: 14px;&quot; face=&quot;Times New Roman&quot;&gt;Descargar la data correspondiente al ciclo o año solicitado desde el portal empresarial: Registro Académico/Educación Virtual/Carga académica por ciclo/Seleccionar Ciclo/Consultar/Exportar a Excel&lt;/font&gt;" style="whiteSpace=wrap;html=1;rounded=0;" vertex="1" parent="1">
          <mxGeometry x="234" y="416" width="353" height="71" as="geometry" />
        </mxCell>
        <mxCell id="5bvm06Lg-U0lzju4u_Vg-17" value="" style="edgeStyle=orthogonalEdgeStyle;rounded=0;orthogonalLoop=1;jettySize=auto;html=1;fontFamily=Times New Roman;fontSize=13;" edge="1" parent="1" source="5bvm06Lg-U0lzju4u_Vg-19" target="5bvm06Lg-U0lzju4u_Vg-22">
          <mxGeometry relative="1" as="geometry" />
        </mxCell>
        <mxCell id="5bvm06Lg-U0lzju4u_Vg-18" value="" style="edgeStyle=orthogonalEdgeStyle;rounded=0;orthogonalLoop=1;jettySize=auto;html=1;fontFamily=Times New Roman;fontSize=13;" edge="1" parent="1" source="5bvm06Lg-U0lzju4u_Vg-19">
          <mxGeometry relative="1" as="geometry">
            <mxPoint x="162" y="616" as="targetPoint" />
          </mxGeometry>
        </mxCell>
        <mxCell id="5bvm06Lg-U0lzju4u_Vg-19" value="¿Presencial o virtual?" style="rhombus;whiteSpace=wrap;html=1;rounded=0;fontFamily=Times New Roman;fontSize=13;" vertex="1" parent="1">
          <mxGeometry x="340.75" y="532" width="139.5" height="80" as="geometry" />
        </mxCell>
        <mxCell id="5bvm06Lg-U0lzju4u_Vg-20" value="Presencial" style="text;html=1;align=center;verticalAlign=middle;resizable=0;points=[];autosize=1;strokeColor=none;fillColor=none;fontFamily=Times New Roman;fontSize=13;" vertex="1" parent="1">
          <mxGeometry x="463.75" y="572" width="71" height="28" as="geometry" />
        </mxCell>
        <mxCell id="5bvm06Lg-U0lzju4u_Vg-32" value="" style="edgeStyle=orthogonalEdgeStyle;rounded=0;orthogonalLoop=1;jettySize=auto;html=1;" edge="1" parent="1" source="5bvm06Lg-U0lzju4u_Vg-22" target="5bvm06Lg-U0lzju4u_Vg-27">
          <mxGeometry relative="1" as="geometry" />
        </mxCell>
        <mxCell id="5bvm06Lg-U0lzju4u_Vg-22" value="Filtrar datos únicamente presenciales" style="whiteSpace=wrap;html=1;rounded=0;fontFamily=Times New Roman;fontSize=13;" vertex="1" parent="1">
          <mxGeometry x="579" y="616" width="144" height="46" as="geometry" />
        </mxCell>
        <mxCell id="5bvm06Lg-U0lzju4u_Vg-23" value="Virtual" style="text;html=1;align=center;verticalAlign=middle;resizable=0;points=[];autosize=1;strokeColor=none;fillColor=none;fontFamily=Times New Roman;fontSize=13;" vertex="1" parent="1">
          <mxGeometry x="304.5" y="572" width="54" height="28" as="geometry" />
        </mxCell>
        <mxCell id="5bvm06Lg-U0lzju4u_Vg-24" value="" style="edgeStyle=orthogonalEdgeStyle;rounded=0;orthogonalLoop=1;jettySize=auto;html=1;fontFamily=Times New Roman;fontSize=13;" edge="1" parent="1" source="5bvm06Lg-U0lzju4u_Vg-25">
          <mxGeometry relative="1" as="geometry">
            <mxPoint x="162.0344827586207" y="698" as="targetPoint" />
          </mxGeometry>
        </mxCell>
        <mxCell id="5bvm06Lg-U0lzju4u_Vg-25" value="Filtrar datos únicamente virtuales" style="whiteSpace=wrap;html=1;rounded=0;fontFamily=Times New Roman;fontSize=13;" vertex="1" parent="1">
          <mxGeometry x="90" y="616" width="144" height="46" as="geometry" />
        </mxCell>
        <mxCell id="5bvm06Lg-U0lzju4u_Vg-33" value="" style="edgeStyle=orthogonalEdgeStyle;rounded=0;orthogonalLoop=1;jettySize=auto;html=1;" edge="1" parent="1" source="5bvm06Lg-U0lzju4u_Vg-27" target="5bvm06Lg-U0lzju4u_Vg-30">
          <mxGeometry relative="1" as="geometry" />
        </mxCell>
        <mxCell id="5bvm06Lg-U0lzju4u_Vg-27" value="Crear tabla dinámica para agrupar por facultad o escuela y contabilizar docentes únicos" style="whiteSpace=wrap;html=1;rounded=0;fontFamily=Times New Roman;fontSize=13;" vertex="1" parent="1">
          <mxGeometry x="580" y="700" width="142" height="60" as="geometry" />
        </mxCell>
        <mxCell id="5bvm06Lg-U0lzju4u_Vg-30" value="&lt;font&gt;Trasladar datos obtenidos al documento de Excel con el histótico según facultad o escuela&lt;/font&gt;" style="whiteSpace=wrap;html=1;fontSize=13;fontFamily=Times New Roman;rounded=0;" vertex="1" parent="1">
          <mxGeometry x="563.5" y="802" width="175" height="64" as="geometry" />
        </mxCell>
        <mxCell id="5bvm06Lg-U0lzju4u_Vg-31" value="&lt;font&gt;Trasladar datos obtenidos al documento de Excel con el histótico según facultad o escuela&lt;/font&gt;" style="whiteSpace=wrap;html=1;fontSize=13;fontFamily=Times New Roman;rounded=0;" vertex="1" parent="1">
          <mxGeometry x="73.5" y="802" width="175" height="64" as="geometry" />
        </mxCell>
        <mxCell id="5bvm06Lg-U0lzju4u_Vg-35" value="" style="edgeStyle=orthogonalEdgeStyle;rounded=0;orthogonalLoop=1;jettySize=auto;html=1;" edge="1" parent="1" source="5bvm06Lg-U0lzju4u_Vg-34" target="5bvm06Lg-U0lzju4u_Vg-31">
          <mxGeometry relative="1" as="geometry" />
        </mxCell>
        <mxCell id="5bvm06Lg-U0lzju4u_Vg-34" value="Crear tabla dinámica para agrupar por facultad o escuela y contabilizar docentes únicos" style="whiteSpace=wrap;html=1;rounded=0;fontFamily=Times New Roman;fontSize=13;" vertex="1" parent="1">
          <mxGeometry x="90" y="700" width="142" height="60" as="geometry" />
        </mxCell>
      </root>
    </mxGraphModel>
  </diagram>
</mxfile>
